<?xml version="1.0" standalone="no"?>
<!DOCTYPE svg PUBLIC "-//W3C//DTD SVG 20010904//EN"
 "http://www.w3.org/TR/2001/REC-SVG-20010904/DTD/svg10.dtd">
<svg version="1.0" xmlns="http://www.w3.org/2000/svg"
 width="227.000000pt" height="72.000000pt" viewBox="0 0 227.000000 72.000000"
 preserveAspectRatio="xMidYMid meet">

<g transform="translate(0.000000,72.000000) scale(0.100000,-0.100000)"
fill="#000000" stroke="none">
<path d="M307 714 c-3 -5 -14 -32 -25 -59 -10 -28 -65 -162 -122 -300 -56
-137 -106 -260 -111 -272 -8 -21 -6 -23 25 -23 34 0 35 1 67 85 l32 86 141 -3
140 -3 31 -80 c31 -79 32 -80 69 -83 33 -3 36 -1 28 15 -6 10 -39 90 -75 178
-204 501 -191 473 -200 459z m10 -422 c-60 -1 -111 -1 -113 1 -2 1 22 67 53
146 l56 143 57 -144 56 -143 -109 -3z"/>
<path d="M68 644 c-5 -4 -8 -52 -8 -106 0 -75 3 -99 13 -95 6 2 12 20 12 39 0
35 1 36 44 41 64 7 91 55 58 101 -14 20 -105 35 -119 20z m79 -20 c27 -8 38
-36 23 -64 -8 -14 -21 -20 -45 -20 -35 0 -35 0 -35 45 0 48 7 52 57 39z"/>
<path d="M460 546 c0 -64 4 -106 10 -106 6 0 10 20 10 45 0 43 1 45 29 45 32
0 44 -11 58 -55 5 -16 14 -28 19 -25 11 6 7 25 -12 64 -13 26 -13 31 1 38 19
12 19 62 0 78 -9 7 -38 15 -65 18 l-50 5 0 -107z m91 74 c41 -23 16 -70 -38
-70 -32 0 -33 1 -33 40 0 36 2 40 26 40 14 0 34 -5 45 -10z"/>
<path d="M650 546 c0 -64 4 -106 10 -106 6 0 10 20 10 45 0 25 2 45 4 45 3 0
25 -21 50 -47 24 -26 48 -45 52 -41 4 4 -12 28 -35 53 -22 24 -41 48 -41 52 0
4 19 26 42 50 23 23 39 46 35 50 -4 4 -30 -15 -57 -42 l-50 -49 0 41 c0 23 -4
45 -10 48 -6 4 -10 -32 -10 -99z"/>
<path d="M829 629 c-14 -14 -18 -27 -13 -42 9 -30 13 -34 58 -49 48 -16 65
-40 47 -62 -17 -20 -65 -21 -81 -1 -7 8 -17 12 -23 8 -18 -11 33 -43 68 -43
34 0 65 25 65 52 0 34 -13 47 -61 63 -41 14 -49 21 -49 41 0 29 37 42 70 24
28 -15 41 -3 16 16 -28 20 -73 17 -97 -7z"/>
<path d="M550 300 c0 -74 2 -83 26 -107 21 -21 32 -24 62 -19 20 3 43 13 49
23 16 20 18 183 3 183 -6 0 -10 -33 -10 -79 0 -83 -12 -111 -49 -111 -39 0
-50 22 -53 104 -2 53 -7 81 -15 84 -10 3 -13 -17 -13 -78z"/>
<path d="M740 370 c0 -5 13 -10 30 -10 l29 0 3 -92 c2 -54 7 -93 13 -93 6 0
11 39 13 93 l3 92 29 0 c17 0 30 5 30 10 0 6 -32 10 -75 10 -43 0 -75 -4 -75
-10z"/>
<path d="M949 351 c-24 -24 -29 -38 -29 -76 0 -39 5 -52 30 -77 27 -26 36 -30
67 -25 57 10 78 37 78 103 0 49 -4 59 -28 80 -39 33 -81 31 -118 -5z m102 -10
c19 -15 24 -29 24 -66 0 -37 -5 -51 -24 -66 -47 -38 -99 -11 -108 58 -5 35 -2
45 20 67 31 31 56 33 88 7z"/>
<path d="M1150 281 c0 -56 4 -103 10 -106 6 -4 10 24 10 76 0 46 4 79 8 74 5
-6 19 -39 32 -75 37 -105 43 -104 81 10 32 96 39 95 39 -5 0 -62 3 -86 10 -79
7 7 10 49 8 105 -3 78 -6 94 -20 97 -13 2 -23 -16 -44 -82 -16 -47 -31 -86
-34 -86 -3 0 -19 38 -35 85 -22 64 -34 85 -47 85 -16 0 -18 -11 -18 -99z"/>
<path d="M1455 368 c-2 -7 -18 -51 -35 -97 -17 -49 -26 -89 -21 -94 5 -5 13 5
19 22 10 28 15 31 56 31 40 0 45 -3 55 -31 6 -17 15 -28 20 -24 6 3 -3 43 -24
102 -19 52 -35 97 -35 99 0 10 -31 2 -35 -8z m39 -71 l14 -47 -35 0 c-38 0
-39 6 -13 76 13 33 16 30 34 -29z"/>
<path d="M1580 370 c0 -5 14 -10 30 -10 l30 0 0 -89 c0 -121 18 -129 22 -9 l3
93 33 3 c62 6 31 22 -43 22 -43 0 -75 -4 -75 -10z"/>
<path d="M1770 274 c0 -67 4 -103 10 -99 6 3 10 50 10 106 0 59 -4 99 -10 99
-6 0 -10 -42 -10 -106z"/>
<path d="M1873 356 c-24 -21 -28 -31 -28 -80 0 -66 21 -93 78 -103 31 -5 40
-1 67 25 25 26 30 38 30 79 -1 51 -12 73 -47 91 -34 19 -69 14 -100 -12z m106
-22 c59 -75 -24 -189 -89 -124 -14 14 -20 33 -20 65 0 79 66 114 109 59z"/>
<path d="M2080 274 c0 -67 4 -103 10 -99 6 3 10 43 10 87 l0 81 53 -84 c29
-46 57 -84 62 -84 6 0 11 44 13 103 2 65 -1 102 -8 102 -6 0 -10 -30 -10 -75
0 -41 -3 -75 -7 -74 -5 0 -29 34 -55 75 -26 40 -52 74 -58 74 -6 0 -10 -40
-10 -106z"/>
</g>
</svg>
